<svg version="1.1" id="logotype" xmlns="http://www.w3.org/2000/svg" xmlns:xlink="http://www.w3.org/1999/xlink" x="0px" y="0px"
	 viewBox="0 0 148 20.7" style="enable-background:new 0 0 148 20.7;" xml:space="preserve">
<style type="text/css">
	.st3{fill:#FFFFFF;}
</style>
<g id="lettres">
	<path id="XMLID_15_" class="st3" d="M68,0.3c-0.3,0.2-0.6,0.4-0.9,0.7c-0.2,0.3-0.5,0.6-0.6,1c-0.2,0.4-0.2,0.7-0.2,1.1v6.7
		c0,0.4,0.1,0.8,0.2,1.2c0.1,0.4,0.4,0.7,0.6,1c0.3,0.3,0.6,0.5,0.9,0.7c0.3,0.2,0.7,0.3,1.1,0.3h16.3v1.7H66.3v6.2h22
		c0.4,0,0.7-0.1,1.1-0.3c0.3-0.2,0.6-0.4,0.9-0.7c0.2-0.3,0.5-0.6,0.6-1C91,18.4,91,18,91,17.6V11c0-0.4-0.1-0.8-0.2-1.2
		c-0.1-0.4-0.4-0.7-0.6-1c-0.3-0.3-0.6-0.5-0.9-0.7C89,8,88.6,7.9,88.2,7.9H72V6.2H91V0h-22C68.7,0,68.3,0.1,68,0.3z"/>
	<path id="XMLID_23_" class="st3" d="M148,6.2V0h-22c-0.4,0-0.7,0.1-1.1,0.3c-0.3,0.2-0.6,0.4-0.9,0.7c-0.3,0.3-0.5,0.6-0.6,1
		c-0.2,0.4-0.2,0.7-0.2,1.1v6.7c0,0.4,0.1,0.8,0.2,1.2c0.1,0.4,0.4,0.7,0.6,1c0.3,0.3,0.6,0.5,0.9,0.7c0.3,0.2,0.7,0.3,1.1,0.3h16.3
		v1.7h-19.1v6.2h22c0.4,0,0.7-0.1,1.1-0.3c0.3-0.2,0.6-0.4,0.9-0.7c0.2-0.3,0.5-0.6,0.6-1c0.2-0.4,0.2-0.7,0.2-1.1V11
		c0-0.4-0.1-0.8-0.2-1.2c-0.1-0.4-0.4-0.7-0.6-1c-0.3-0.3-0.6-0.5-0.9-0.7c-0.3-0.2-0.7-0.3-1.1-0.3h-16.3V6.2H148z"/>
	<polygon id="XMLID_24_" class="st3" points="110.2,9.6 102.4,0 94.7,0 107.2,14.5 96.8,14.5 96.8,20.7 112.1,20.7 119.5,0 113.4,0 
			"/>
	<polygon id="XMLID_25_" class="st3" points="50.2,6.4 42.6,0 37.8,0 37.8,3.9 45.5,10.3 37.8,16.8 37.8,20.7 42.6,20.7 50.2,14.3 
		57.9,20.7 62.6,20.7 62.6,16.8 54.9,10.3 62.6,3.9 62.6,0 57.8,0 	"/>
	<rect id="XMLID_26_" x="28.4" y="0" class="st3" width="5.7" height="20.7"/>
	<polygon id="XMLID_27_" class="st3" points="19,4.4 19,10.8 19,11.9 5.8,0.9 4.8,0 0,0 0,4.4 0,10.8 0,20.7 5.8,20.7 5.8,8.8 
		7.7,10.3 12.4,14.3 19,19.8 20,20.7 24.8,20.7 24.8,0 19,0 	"/>
</g>
</svg>