<svg version="1.1" id="resume-svg" xmlns="http://www.w3.org/2000/svg" xmlns:xlink="http://www.w3.org/1999/xlink" x="0px" y="0px"
	 viewBox="0 0 153.3 26" style="enable-background:new 0 0 153.3 26;" xml:space="preserve">
   <style type="text/css">
   	.st4{fill:#383942;}
   </style>
<g id="XMLID_159_">
	<path id="XMLID_176_" class="st4" d="M55,7.8c0.5-0.7,0.8-1.6,0.8-2.8c0-0.6-0.1-1.2-0.3-1.8c-0.2-0.6-0.5-1-0.9-1.5S53.7,1,53,0.8
		c-0.6-0.2-1.3-0.4-2.2-0.4h-6v15h3.9V9.6l3.7,5.8h4.8l-4.7-6.1C53.6,9,54.4,8.5,55,7.8z M51.2,6.6c-0.4,0.3-1,0.5-1.8,0.5h-0.7V3.4
		h0.7c0.8,0,1.4,0.2,1.8,0.5s0.6,0.8,0.6,1.4C51.8,5.9,51.6,6.3,51.2,6.6z"/>
	<polygon id="XMLID_177_" class="st4" points="58.9,15.4 67.4,15.4 67.4,12.1 62.8,12.1 62.8,9.5 67.1,9.5 67.1,6.2 62.8,6.2 
		62.8,3.7 67.4,3.7 67.4,0.4 58.9,0.4 	"/>
	<path id="XMLID_178_" class="st4" d="M76.9,6.2c-0.3-0.1-0.6-0.2-1-0.3c-0.3-0.1-0.6-0.2-0.9-0.3c-0.3-0.1-0.5-0.3-0.6-0.4
		s-0.2-0.4-0.2-0.7c0-0.4,0.2-0.7,0.5-0.9c0.3-0.2,0.7-0.4,1.2-0.4c0.4,0,0.8,0.1,1.2,0.2c0.4,0.2,0.8,0.4,1.3,0.8l1.5-3
		c-0.7-0.4-1.5-0.7-2.3-0.9C76.8,0.1,76,0,75.3,0c-0.8,0-1.5,0.1-2.2,0.4c-0.6,0.2-1.2,0.6-1.6,1c-0.4,0.4-0.8,0.9-1,1.5
		c-0.2,0.6-0.4,1.3-0.4,2c0,0.7,0.1,1.4,0.3,1.8S71,7.6,71.4,8c0.4,0.3,0.8,0.6,1.3,0.8c0.5,0.2,1,0.4,1.5,0.5
		c0.4,0.1,0.8,0.3,1.1,0.4S75.8,9.9,76,10s0.3,0.3,0.4,0.5c0.1,0.2,0.1,0.4,0.1,0.6c0,0.4-0.2,0.7-0.5,1c-0.3,0.3-0.8,0.4-1.4,0.4
		c-0.6,0-1.1-0.1-1.7-0.4s-1.1-0.6-1.7-1.2l-1.7,3.1c1.6,1.1,3.4,1.7,5.3,1.7c0.9,0,1.7-0.1,2.4-0.4c0.7-0.2,1.3-0.6,1.8-1
		c0.5-0.4,0.9-1,1.1-1.6c0.3-0.6,0.4-1.3,0.4-2.1c0-1.1-0.3-2.1-0.9-2.8C79.1,7.2,78.2,6.7,76.9,6.2z"/>
	<path id="XMLID_179_" class="st4" d="M92.2,8.5c0,0.4,0,0.9,0,1.3c0,0.5-0.1,0.9-0.3,1.2c-0.2,0.4-0.4,0.7-0.8,0.9
		s-0.8,0.3-1.5,0.3S88.4,12.3,88,12s-0.6-0.5-0.8-0.9c-0.2-0.4-0.3-0.8-0.3-1.2c0-0.5,0-0.9,0-1.3V0.4H83v8.7c0,2.3,0.5,4,1.6,5.1
		c1.1,1.1,2.7,1.6,4.9,1.6s3.8-0.5,4.9-1.6c1.1-1.1,1.6-2.8,1.6-5.1V0.4h-3.9V8.5z"/>
	<polygon id="XMLID_180_" class="st4" points="110.8,0.4 107.9,8.4 104.9,0.4 101,0.4 98.5,15.4 102.3,15.4 103.6,6.8 107,15.4 
		108.5,15.4 112.1,6.8 113.4,15.4 117.2,15.4 114.7,0.4 	"/>
	<polygon id="XMLID_181_" class="st4" points="119.7,15.4 128.2,15.4 128.2,12.1 123.6,12.1 123.6,9.5 127.9,9.5 127.9,6.2 
		123.6,6.2 123.6,3.7 128.2,3.7 128.2,0.4 119.7,0.4 	"/>
	<path id="XMLID_182_" class="st4" d="M138.7,0.8V16h5.6v10h3.5V16h5.6C153.3,8,146.7,0.8,138.7,0.8z"/>
	<path id="XMLID_183_" class="st4" d="M0,16h5.6v10h3.5V16h5.6h21.5V0.8H14.7C6.7,0.8,0,8,0,16z"/>
</g>
</svg>