<svg class="title-cv-band" id="cv-edu" version="1.1" xmlns="http://www.w3.org/2000/svg" xmlns:xlink="http://www.w3.org/1999/xlink" x="0px" y="0px"
	 viewBox="0 0 191.3 20.9" style="enable-background:new 0 0 191.3 20.9;" xml:space="preserve">

<g id="edu-marker">
	<path id="XMLID_164_" class="cvst0" d="M176.7,0.8V16h5.6v4.9h3.5V16h5.6C191.3,8,184.7,0.8,176.7,0.8z"/>
	<path id="XMLID_165_" class="cvst0" d="M0,16h5.6v4.9h3.5V16h5.6h21.5V0.8H14.7C6.7,0.8,0,8,0,16z"/>
</g>
<g id="edu-title">
	<polygon id="XMLID_80_" class="cvst0" points="44.8,15.4 53.3,15.4 53.3,12.1 48.7,12.1 48.7,9.5 53.1,9.5 53.1,6.2 48.7,6.2 
		48.7,3.7 53.3,3.7 53.3,0.4 44.8,0.4 	"/>
	<path id="XMLID_150_" class="cvst0" d="M67.1,2.7C66.4,2,65.6,1.4,64.7,1c-0.9-0.4-1.8-0.6-2.9-0.6h-5.8v15h5.8c1,0,2-0.2,2.9-0.6
		c0.9-0.4,1.7-1,2.3-1.6c0.7-0.7,1.2-1.5,1.6-2.4c0.4-0.9,0.6-1.8,0.6-2.8c0-1-0.2-1.9-0.6-2.8C68.3,4.1,67.7,3.3,67.1,2.7z
		 M64.9,9.6c-0.2,0.5-0.5,0.9-0.8,1.3s-0.8,0.7-1.3,0.9c-0.5,0.2-1.1,0.3-1.8,0.3H60V3.7h0.9c0.7,0,1.3,0.1,1.8,0.3
		c0.5,0.2,1,0.5,1.3,0.9c0.4,0.4,0.6,0.8,0.8,1.3s0.3,1.1,0.3,1.7C65.2,8.5,65.1,9.1,64.9,9.6z"/>
	<path id="XMLID_151_" class="cvst0" d="M80.9,8.5c0,0.4,0,0.9,0,1.3c0,0.5-0.1,0.9-0.3,1.2c-0.2,0.4-0.4,0.7-0.8,0.9
		s-0.8,0.3-1.5,0.3s-1.1-0.1-1.5-0.3s-0.6-0.5-0.8-0.9c-0.2-0.4-0.3-0.8-0.3-1.2c0-0.5,0-0.9,0-1.3V0.4h-3.9v8.7
		c0,2.3,0.5,4,1.6,5.1c1.1,1.1,2.7,1.6,4.9,1.6s3.8-0.5,4.9-1.6c1.1-1.1,1.6-2.8,1.6-5.1V0.4h-3.9V8.5z"/>
	<path id="XMLID_152_" class="cvst0" d="M95.1,0c-1,0-2,0.2-3,0.6c-1,0.4-1.8,0.9-2.5,1.6c-0.7,0.7-1.3,1.5-1.7,2.5
		c-0.4,1-0.6,2-0.6,3.2c0,1.2,0.2,2.2,0.7,3.2c0.4,1,1,1.8,1.7,2.5c0.7,0.7,1.6,1.3,2.5,1.6c0.9,0.4,1.9,0.6,3,0.6
		c0.5,0,1,0,1.5-0.1c0.5-0.1,1.1-0.3,1.7-0.5l0.4-0.1v-4.6c-1,1.1-2.1,1.6-3.4,1.6c-0.6,0-1.1-0.1-1.6-0.3c-0.5-0.2-0.9-0.5-1.3-0.9
		c-0.4-0.4-0.6-0.8-0.9-1.3c-0.2-0.5-0.3-1.1-0.3-1.6c0-0.6,0.1-1.1,0.3-1.6c0.2-0.5,0.5-0.9,0.8-1.3s0.8-0.7,1.3-0.9
		c0.5-0.2,1-0.3,1.6-0.3c1.3,0,2.4,0.5,3.3,1.6V0.8c-0.6-0.3-1.2-0.5-1.8-0.6C96.2,0.1,95.7,0,95.1,0z"/>
	<path id="XMLID_155_" class="cvst0" d="M105.7,0.4l-5.7,15h4.1l0.9-2.6h5.6l0.9,2.6h4.1l-5.7-15H105.7z M106.1,9.8l1.7-5l1.7,5H106.1
		z"/>
	<polygon id="XMLID_156_" class="cvst0" points="115.3,3.7 118.5,3.7 118.5,15.4 122.4,15.4 122.4,3.7 125.6,3.7 125.6,0.4 115.3,0.4 
			"/>
	<rect id="XMLID_159_" x="127.3" y="0.4" class="cvst0" width="3.9" height="15"/>
	<path id="XMLID_162_" class="cvst0" d="M147.9,2.3c-0.7-0.7-1.6-1.3-2.6-1.7c-1-0.4-2.1-0.6-3.3-0.6c-1.2,0-2.3,0.2-3.3,0.6
		c-1,0.4-1.9,1-2.6,1.7s-1.3,1.5-1.7,2.5c-0.4,1-0.6,2-0.6,3.1s0.2,2.1,0.6,3.1c0.4,1,1,1.8,1.7,2.5s1.6,1.3,2.6,1.7
		c1,0.4,2.1,0.6,3.3,0.6c1.2,0,2.3-0.2,3.3-0.6c1-0.4,1.9-1,2.6-1.7s1.3-1.5,1.7-2.5c0.4-1,0.6-2,0.6-3.1s-0.2-2.1-0.6-3.1
		C149.2,3.8,148.6,3,147.9,2.3z M145.8,9.5c-0.2,0.5-0.5,0.9-0.9,1.3c-0.4,0.4-0.8,0.7-1.3,0.9s-1,0.3-1.6,0.3s-1.1-0.1-1.6-0.3
		c-0.5-0.2-1-0.5-1.3-0.9s-0.7-0.8-0.9-1.3c-0.2-0.5-0.3-1.1-0.3-1.6s0.1-1.1,0.3-1.6c0.2-0.5,0.5-0.9,0.9-1.3s0.8-0.7,1.3-0.9
		c0.5-0.2,1-0.3,1.6-0.3s1.1,0.1,1.6,0.3c0.5,0.2,1,0.5,1.3,0.9c0.4,0.4,0.7,0.8,0.9,1.3c0.2,0.5,0.3,1.1,0.3,1.6S146,9,145.8,9.5z"
		/>
	<polygon id="XMLID_163_" class="cvst0" points="163.7,9.6 156.5,0.4 152.7,0.4 152.7,15.4 156.5,15.4 156.5,6.2 163.7,15.4 
		167.6,15.4 167.6,0.4 163.7,0.4 	"/>
</g>
</svg>
