<svg class="title-cv-band" id="cv-employ" version="1.1" xmlns="http://www.w3.org/2000/svg" xmlns:xlink="http://www.w3.org/1999/xlink" x="0px" y="0px"
	 viewBox="0 0 312.3 20.4" style="enable-background:new 0 0 312.3 20.4;" xml:space="preserve">

<g id="employ-marker">
	<path id="XMLID_108_" class="cvst0" d="M297.7,0.2v15.2h5.6v5h3.5v-5h5.6C312.3,7.4,305.7,0.2,297.7,0.2z"/>
	<path id="XMLID_109_" class="cvst0" d="M0,15.4h5.6v5h3.5v-5h5.6h21.5V0.2H14.7C6.7,0.2,0,7.4,0,15.4z"/>
</g>
<g id="employ-title">
	<polygon id="XMLID_81_" class="cvst0" points="44.8,15.4 53.3,15.4 53.3,12.1 48.7,12.1 48.7,9.5 53.1,9.5 53.1,6.2 48.7,6.2 
		48.7,3.7 53.3,3.7 53.3,0.4 44.8,0.4 	"/>
	<polygon id="XMLID_84_" class="cvst0" points="67.8,0.4 64.8,8.4 61.8,0.4 58,0.4 55.4,15.4 59.3,15.4 60.6,6.8 64,15.4 65.5,15.4 
		69,6.8 70.3,15.4 74.2,15.4 71.6,0.4 	"/>
	<path id="XMLID_87_" class="cvst0" d="M82.8,0.4h-6.2v15h3.9v-5h2.3c1.7,0,3-0.4,3.9-1.3C87.6,8.2,88,7,88,5.4c0-1.6-0.4-2.8-1.3-3.7
		C85.8,0.9,84.5,0.4,82.8,0.4z M81.8,7.3h-1.3V3.5h1.3c1.4,0,2.1,0.6,2.1,1.9C84,6.7,83.2,7.3,81.8,7.3z"/>
	<polygon id="XMLID_88_" class="cvst0" points="94,0.4 90.1,0.4 90.1,15.4 98.6,15.4 98.6,12.1 94,12.1 	"/>
	<path id="XMLID_91_" class="cvst0" d="M113.9,2.3c-0.7-0.7-1.6-1.3-2.6-1.7c-1-0.4-2.1-0.6-3.3-0.6c-1.2,0-2.3,0.2-3.3,0.6
		c-1,0.4-1.9,1-2.6,1.7s-1.3,1.5-1.7,2.5c-0.4,1-0.6,2-0.6,3.1c0,1.1,0.2,2.1,0.6,3.1c0.4,1,1,1.8,1.7,2.5s1.6,1.3,2.6,1.7
		c1,0.4,2.1,0.6,3.3,0.6c1.2,0,2.3-0.2,3.3-0.6c1-0.4,1.9-1,2.6-1.7s1.3-1.5,1.7-2.5c0.4-1,0.6-2,0.6-3.1c0-1.1-0.2-2.1-0.6-3.1
		C115.2,3.8,114.6,3,113.9,2.3z M111.8,9.5c-0.2,0.5-0.5,0.9-0.9,1.3c-0.4,0.4-0.8,0.7-1.3,0.9c-0.5,0.2-1,0.3-1.6,0.3
		s-1.1-0.1-1.6-0.3c-0.5-0.2-1-0.5-1.3-0.9s-0.7-0.8-0.9-1.3c-0.2-0.5-0.3-1.1-0.3-1.6c0-0.6,0.1-1.1,0.3-1.6
		c0.2-0.5,0.5-0.9,0.9-1.3s0.8-0.7,1.3-0.9c0.5-0.2,1-0.3,1.6-0.3s1.1,0.1,1.6,0.3s1,0.5,1.3,0.9c0.4,0.4,0.7,0.8,0.9,1.3
		c0.2,0.5,0.3,1.1,0.3,1.6C112.2,8.5,112,9,111.8,9.5z"/>
	<polygon id="XMLID_92_" class="cvst0" points="123.2,4.5 120.4,0.4 115.8,0.4 121.2,8.2 121.2,15.4 125.1,15.4 125.1,8.2 130.6,0.4 
		126,0.4 	"/>
	<polygon id="XMLID_93_" class="cvst0" points="143.7,0.4 140.7,8.4 137.7,0.4 133.8,0.4 131.3,15.4 135.2,15.4 136.5,6.8 139.8,15.4 
		141.3,15.4 144.9,6.8 146.2,15.4 150,15.4 147.5,0.4 	"/>
	<polygon id="XMLID_94_" class="cvst0" points="152.5,15.4 161,15.4 161,12.1 156.4,12.1 156.4,9.5 160.7,9.5 160.7,6.2 156.4,6.2 
		156.4,3.7 161,3.7 161,0.4 152.5,0.4 	"/>
	<polygon id="XMLID_95_" class="cvst0" points="174.9,9.6 167.7,0.4 163.8,0.4 163.8,15.4 167.7,15.4 167.7,6.2 174.9,15.4 
		178.7,15.4 178.7,0.4 174.9,0.4 	"/>
	<polygon id="XMLID_96_" class="cvst0" points="180.5,3.7 183.6,3.7 183.6,15.4 187.5,15.4 187.5,3.7 190.7,3.7 190.7,0.4 180.5,0.4 	
		"/>
	<polygon id="XMLID_97_" class="cvst0" points="208.7,6.2 203.1,6.2 203.1,0.4 199.2,0.4 199.2,15.4 203.1,15.4 203.1,9.2 208.7,9.2 
		208.7,15.4 212.6,15.4 212.6,0.4 208.7,0.4 	"/>
	<rect id="XMLID_98_" x="215.7" y="0.4" class="cvst0" width="3.9" height="15"/>
	<path id="XMLID_99_" class="cvst0" d="M229.4,6.2c-0.3-0.1-0.6-0.2-1-0.3c-0.3-0.1-0.6-0.2-0.9-0.3c-0.3-0.1-0.5-0.3-0.6-0.4
		s-0.2-0.4-0.2-0.7c0-0.4,0.2-0.7,0.5-0.9c0.3-0.2,0.7-0.4,1.2-0.4c0.4,0,0.8,0.1,1.2,0.2c0.4,0.2,0.8,0.4,1.3,0.8l1.5-3
		c-0.7-0.4-1.5-0.7-2.3-0.9c-0.8-0.2-1.6-0.3-2.3-0.3c-0.8,0-1.5,0.1-2.2,0.4c-0.6,0.2-1.2,0.6-1.6,1c-0.4,0.4-0.8,0.9-1,1.5
		c-0.2,0.6-0.4,1.3-0.4,2s0.1,1.4,0.3,1.8s0.5,0.9,0.9,1.2c0.4,0.3,0.8,0.6,1.3,0.8c0.5,0.2,1,0.4,1.5,0.5c0.4,0.1,0.8,0.3,1.1,0.4
		c0.3,0.1,0.5,0.2,0.7,0.4c0.2,0.1,0.3,0.3,0.4,0.5c0.1,0.2,0.1,0.4,0.1,0.6c0,0.4-0.2,0.7-0.5,1c-0.3,0.3-0.8,0.4-1.4,0.4
		c-0.6,0-1.1-0.1-1.7-0.4s-1.1-0.6-1.7-1.2l-1.7,3.1c1.6,1.1,3.4,1.7,5.3,1.7c0.9,0,1.7-0.1,2.4-0.4c0.7-0.2,1.3-0.6,1.8-1
		c0.5-0.4,0.9-1,1.1-1.6s0.4-1.3,0.4-2.1c0-1.1-0.3-2.1-0.9-2.8C231.6,7.2,230.7,6.7,229.4,6.2z"/>
	<polygon id="XMLID_100_" class="cvst0" points="234.2,3.7 237.4,3.7 237.4,15.4 241.3,15.4 241.3,3.7 244.5,3.7 244.5,0.4 234.2,0.4 
			"/>
	<path id="XMLID_103_" class="cvst0" d="M259.6,2.3C258.9,1.6,258,1,257,0.6c-1-0.4-2.1-0.6-3.3-0.6c-1.2,0-2.3,0.2-3.3,0.6
		c-1,0.4-1.9,1-2.6,1.7s-1.3,1.5-1.7,2.5c-0.4,1-0.6,2-0.6,3.1c0,1.1,0.2,2.1,0.6,3.1c0.4,1,1,1.8,1.7,2.5s1.6,1.3,2.6,1.7
		c1,0.4,2.1,0.6,3.3,0.6c1.2,0,2.3-0.2,3.3-0.6c1-0.4,1.9-1,2.6-1.7s1.3-1.5,1.7-2.5c0.4-1,0.6-2,0.6-3.1c0-1.1-0.2-2.1-0.6-3.1
		C260.9,3.8,260.4,3,259.6,2.3z M257.6,9.5c-0.2,0.5-0.5,0.9-0.9,1.3c-0.4,0.4-0.8,0.7-1.3,0.9c-0.5,0.2-1,0.3-1.6,0.3
		s-1.1-0.1-1.6-0.3c-0.5-0.2-1-0.5-1.3-0.9s-0.7-0.8-0.9-1.3c-0.2-0.5-0.3-1.1-0.3-1.6c0-0.6,0.1-1.1,0.3-1.6
		c0.2-0.5,0.5-0.9,0.9-1.3s0.8-0.7,1.3-0.9c0.5-0.2,1-0.3,1.6-0.3s1.1,0.1,1.6,0.3s1,0.5,1.3,0.9c0.4,0.4,0.7,0.8,0.9,1.3
		c0.2,0.5,0.3,1.1,0.3,1.6C257.9,8.5,257.8,9,257.6,9.5z"/>
	<path id="XMLID_106_" class="cvst0" d="M274.6,7.8c0.5-0.7,0.8-1.6,0.8-2.8c0-0.6-0.1-1.2-0.3-1.8c-0.2-0.6-0.5-1-0.9-1.5
		c-0.4-0.4-0.9-0.8-1.5-1c-0.6-0.2-1.3-0.4-2.2-0.4h-6v15h3.9V9.6l3.7,5.8h4.8l-4.7-6.1C273.2,9,274,8.5,274.6,7.8z M270.8,6.6
		c-0.4,0.3-1,0.5-1.8,0.5h-0.7V3.4h0.7c0.8,0,1.4,0.2,1.8,0.5s0.6,0.8,0.6,1.4S271.2,6.3,270.8,6.6z"/>
	<polygon id="XMLID_107_" class="cvst0" points="283.3,4.5 280.6,0.4 275.9,0.4 281.4,8.2 281.4,15.4 285.3,15.4 285.3,8.2 290.7,0.4 
		286.1,0.4 	"/>
</g>
</svg>
