<svg version="1.1" class="icon-band" id="icon-ref" xmlns="http://www.w3.org/2000/svg" xmlns:xlink="http://www.w3.org/1999/xlink" x="0px" y="0px"
	 viewBox="0 0 39.8 32.4" style="enable-background:new 0 0 39.8 32.4;" xml:space="preserve">

<g id="XMLID_4_">
	<path id="XMLID_7_" class="cvst0" d="M15.3,14.4c0,5.2,4.3,9.4,9.4,9.4c5.2,0,9.5-4.2,9.5-9.4c0-5.3-4.2-9.5-9.5-9.5
		C19.5,4.9,15.3,9.2,15.3,14.4z"/>
	<path id="XMLID_62_" class="cvst0" d="M13.1,13.8c0.3-0.1,0.4-0.2,0.5-0.5c0.1-0.8,0.3-1.6,0.5-2.4c0.7-2.3,2.2-4.2,4.1-5.7
		c0.3-0.2,0.3-0.4,0.2-0.7c-1.3-3.3-4.5-5-8-4.4C7.4,0.7,5,3.7,4.9,6.9C5,7.4,5,7.9,5.1,8.4C6,12.1,9.3,14.3,13.1,13.8z"/>
	<path id="XMLID_63_" class="cvst0" d="M1.6,23.8c1.4-1.4,2.9-2.8,4.3-4.3c0.6-0.5,0.7-0.5,1.3,0c1.4,1.4,2.8,2.7,4.2,4.1
		c0.4,0.4,0.7,0.4,1.1,0c0.9-0.8,1.7-1.5,2.6-2.2c0.4-0.3,0.5-0.6,0.2-1c-0.9-1.4-1.4-2.9-1.7-4.5c-0.1-0.7-0.2-0.8-0.9-0.7
		c-2.3,0.2-4.3-0.4-6.1-1.9c-0.4-0.3-0.7-0.4-1.2,0C1.9,15.8,0.3,19.4,0,23.6C0,24,0.1,24.2,0.5,24.2C1,24.2,1.3,24.1,1.6,23.8z"/>
	<path id="XMLID_64_" class="cvst0" d="M39.6,31.9c-1.2-3.7-3.4-6.8-6.6-9.1c-0.4-0.3-0.7-0.2-1,0.1c-2,1.7-4.3,2.6-6.8,2.7
		c-3,0.1-5.7-0.9-8-2.9c-0.3-0.3-0.6-0.3-0.9,0c-1,0.8-1.9,1.6-2.9,2.4c-0.3,0.3-0.3,0.5,0,0.7c1.2,1.1,2.3,2.3,3.5,3.4
		c0.1,0.1,0.2,0.3,0.4,0.5c-2.1,0-4.1,0-6.1,0c0,0.1-0.1,0.1-0.1,0.2c0.3,0.8,0.6,1.6,1,2.4c0,0,0,0,0,0h27.5
		C39.7,32.2,39.7,32.1,39.6,31.9z"/>
	<path id="XMLID_65_" class="cvst0" d="M10,27.9c0.8,0,1.5,0,2.3,0c0.2,0,0.3,0,0.6,0c-0.1-0.2-0.2-0.3-0.3-0.4
		c-1.9-1.9-3.8-3.7-5.7-5.6c-0.3-0.3-0.5-0.2-0.7,0.1c-1.9,1.9-3.8,3.7-5.7,5.6c-0.1,0.1-0.2,0.2-0.3,0.4c0.3,0,0.5,0,0.6,0
		c0.8,0,1.6,0,2.4,0c0.4,0,0.7,0.1,0.8,0.6c0.2,0.7,0.4,1.4,0.7,2c0.3,0.7,0.6,1.3,1,1.9h4.5c-0.5-1.1-0.8-2.3-1-3.6
		C9.2,28,9.3,27.9,10,27.9z"/>
</g>
</svg>