<svg version="1.1" class="icon-band" id="icon-employ" xmlns="http://www.w3.org/2000/svg" xmlns:xlink="http://www.w3.org/1999/xlink" x="0px" y="0px"
	 viewBox="0 0 49.6 32.5" style="enable-background:new 0 0 49.6 32.5;" xml:space="preserve">

<g id="XMLID_3_">
	<path id="XMLID_6_" class="cvst0" d="M43.5,12.9c0-1.1,0-2.3,0-3.4c0-0.1-0.1-0.4-0.2-0.4c-0.7-0.3-1.5-0.5-2.3-0.8
		c0,8.1,0,16.1,0,24.2h2.5C43.5,26,43.5,19.5,43.5,12.9z"/>
	<path id="XMLID_15_" class="cvst0" d="M49.6,26.7c0-0.5,0-0.5-0.7-0.6C48,26.1,47,26,46,25.9c0-0.4,0-0.7,0-1.1
		c1.2,0.1,2.4,0.2,3.6,0.3c0-0.8,0-1.6,0-2.4c0-0.3-0.1-0.4-0.5-0.5c-0.9-0.1-1.9-0.2-2.8-0.4c-0.1,0-0.3-0.1-0.3-0.2
		c0-0.3,0-0.6,0-1c1.2,0.2,2.4,0.4,3.6,0.5c0-0.8,0-1.6,0-2.4c0-0.3-0.1-0.4-0.5-0.5c-1-0.2-2.1-0.4-3.1-0.6c0-0.4,0-0.7,0-1.1
		c1.2,0.3,2.4,0.5,3.6,0.8c0-0.9,0-1.7,0-2.4c0-0.3-0.1-0.4-0.4-0.4c-1-0.2-1.9-0.5-2.9-0.7c-0.1,0-0.3-0.1-0.3-0.2c0-0.3,0-0.6,0-1
		c1.2,0.3,2.4,0.6,3.6,1c0-0.9,0-1.8,0-2.6c0-0.1-0.2-0.2-0.4-0.3c-1.1-0.3-2.1-0.6-3.2-1c-0.5-0.2-1.1-0.3-1.7-0.5
		c0,7.7,0,15.4,0,23.1h5.2c0-0.8,0-1.6,0-2.4c-1.2,0-2.4-0.1-3.6-0.1c0-0.4,0-0.7,0-1.1c1.2,0,2.4,0.1,3.6,0.1
		C49.6,28.2,49.6,27.5,49.6,26.7z"/>
	<path id="XMLID_20_" class="cvst0" d="M5.3,8v0.7l0.9-0.3V7.7L14.6,5v0.7l0.9-0.3V4.7l2.6-0.8V0.3L16.9,0L3,4.4v2.7v1.2h1.2L5.3,8z
		 M15,1l0,0.6l-0.6,0.2l0,0.6l0.5-0.2l0,0.6L14.6,3l0,0.7l0.6-0.2l0,0.6l-1.5,0.5l-0.2-3.1L15,1z M11.4,2.8c0-0.1,0.1-0.2,0.1-0.4
		c0.1-0.1,0.2-0.2,0.3-0.4c0.1-0.1,0.3-0.2,0.5-0.2c0.2-0.1,0.5-0.1,0.6-0.1c0.2,0,0.3,0.1,0.3,0.2c0.1,0.1,0.1,0.3,0.1,0.6l0,0.3
		l-0.8,0.3l0-0.5c0-0.2,0-0.3,0-0.3c0,0-0.1,0-0.1,0c-0.1,0-0.1,0.1-0.1,0.1c0,0.1,0,0.2,0,0.3l0.1,1.5c0,0.2,0,0.2,0,0.3
		c0,0,0.1,0.1,0.1,0c0.1,0,0.1-0.1,0.1-0.1s0-0.2,0-0.3l0-0.4l0.8-0.3l0,0.1c0,0.3,0,0.6,0,0.7c0,0.2-0.1,0.3-0.3,0.5
		C12.9,4.9,12.7,5,12.5,5c-0.2,0.1-0.5,0.1-0.6,0.1S11.6,5,11.5,4.9s-0.1-0.4-0.1-0.7l-0.1-0.9C11.4,3,11.4,2.9,11.4,2.8z M11,2.3
		l0.2,3.1l-0.8,0.3l-0.2-3.1L11,2.3z M9.9,2.6l0,0.6L9.4,3.4l0,0.6l0.5-0.2l0,0.6L9.5,4.6l0.1,1.3L8.7,6.2L8.5,3.1L9.9,2.6z
		 M8.3,3.1l0,0.6L7.7,3.9l0,0.6l0.5-0.2l0,0.6L7.8,5.1l0.1,1.3L7,6.7L6.9,3.6L8.3,3.1z M4.6,4.9c0-0.1,0-0.3,0.1-0.4S5,4.3,5.1,4.2
		C5.2,4.1,5.4,4,5.6,3.9C5.7,3.9,5.9,3.9,6,3.9c0.1,0,0.3,0.1,0.3,0.1c0.1,0.1,0.1,0.2,0.2,0.3c0,0.1,0,0.3,0.1,0.7l0,0.5
		c0,0.3,0,0.5,0,0.7c0,0.1,0,0.3-0.1,0.4C6.5,6.7,6.4,6.9,6.2,7C6.1,7.1,5.9,7.2,5.8,7.2C5.6,7.3,5.4,7.3,5.3,7.3
		C5.1,7.3,5,7.2,4.9,7.1C4.8,7.1,4.8,7,4.8,6.8c0-0.1,0-0.3-0.1-0.7l0-0.5C4.6,5.3,4.6,5.1,4.6,4.9z"/>
	<path id="XMLID_50_" class="cvst0" d="M5.6,6.3c0,0.2,0,0.3,0,0.3c0,0,0.1,0,0.1,0c0.1,0,0.1-0.1,0.1-0.1s0-0.2,0-0.4L5.7,4.8
		c0-0.1,0-0.2,0-0.3c0,0-0.1,0-0.1,0c0,0-0.1,0-0.1,0.1c0,0,0,0.1,0,0.3L5.6,6.3z"/>
	<path id="XMLID_51_" class="cvst0" d="M5.3,9.3c-1.7,0.5-3.4,1.1-5.1,1.6C0.1,11,0,11.1,0,11.1c0,0.9,0,1.7,0,2.7
		c1.2-0.3,2.4-0.6,3.6-1c0,0.3,0,0.5,0,0.8c0,0.2-0.1,0.3-0.4,0.4c-1,0.2-1.9,0.5-2.9,0.7C0.2,14.8,0,14.9,0,15c0,0.9,0,1.7,0,2.6
		c1.2-0.3,2.4-0.5,3.6-0.8c0,0.3,0,0.6,0,0.8c0,0.2-0.1,0.3-0.4,0.4c-1,0.2-1.9,0.4-2.9,0.6c-0.1,0-0.3,0.2-0.4,0.2
		c0,0.8,0,1.7,0,2.6c1.2-0.2,2.4-0.4,3.6-0.5c0,0.3,0,0.5,0,0.8c0,0.2-0.1,0.3-0.4,0.4c-0.9,0.1-1.9,0.3-2.8,0.4
		c-0.3,0-0.4,0.1-0.4,0.4c0,0.7,0,1.5,0,2.2c0,0.1,0,0.2,0,0.3c1.2-0.1,2.3-0.2,3.6-0.3c0,0.3,0,0.6,0,0.8c0,0.2-0.1,0.3-0.4,0.3
		c-1,0.1-1.9,0.2-2.9,0.2c-0.3,0-0.4,0.1-0.4,0.4c0,0.5,0,1,0,1.5c0,0.3,0,0.6,0,0.9c1.2,0,2.4-0.1,3.6-0.1c0,0.4,0,0.7,0,1.1
		c-0.2,0-0.4,0-0.6,0c-0.9,0-1.7,0-2.6,0.1c-0.1,0-0.4,0.1-0.4,0.2c0,0.7,0,1.4,0,2.2h5.2C5.3,24.8,5.3,17.1,5.3,9.3z"/>
	<path id="XMLID_52_" class="cvst0" d="M8.6,8.3C7.8,8.6,7,8.8,6.2,9.1c-0.1,0-0.2,0.2-0.2,0.3c0,0.4,0,0.9,0,1.3c0,7.3,0,14.6,0,21.9
		h2.5C8.6,24.5,8.6,16.4,8.6,8.3z"/>
	<path id="XMLID_53_" class="cvst0" d="M24.3,29.5c-4.3,0.1-8.6,0.2-12.9,0.3c0-0.4,0-0.8,0-1.2c2.3-0.1,4.6-0.1,6.8-0.2
		c1.9-0.1,3.8-0.2,5.7-0.2c0.3,0,0.4-0.1,0.4-0.3c0-1.1,0-2.1,0-3.2c0-0.1,0-0.2,0-0.3c-4.3,0.3-8.6,0.7-12.9,1c0-0.3,0-0.6,0-0.9
		c0-0.2,0.1-0.3,0.4-0.3c3.5-0.3,7-0.7,10.5-1c0.7-0.1,1.3-0.1,2-0.2c0-1.3,0-2.5,0-3.8c-4.3,0.6-8.6,1.2-12.9,1.8
		c0-0.3,0-0.6,0-0.8c0-0.3,0.1-0.4,0.5-0.5c4-0.6,8-1.2,12-1.8c0.4-0.1,0.5-0.2,0.4-0.4c0-1,0-2,0-3c0-0.1,0-0.2,0-0.4
		c-4.3,0.8-8.6,1.7-12.9,2.5c0-0.3,0-0.5,0-0.7c-0.1-0.4,0.1-0.5,0.6-0.6c4-0.8,8-1.7,12-2.5c0.3-0.1,0.4-0.2,0.4-0.4
		c0-0.9,0-1.8,0-2.8c0-0.2,0-0.4,0-0.7c-4.3,1.1-8.6,2.2-12.9,3.3c0-0.3,0-0.5,0-0.7c-0.1-0.4,0.1-0.5,0.6-0.7
		c3.9-1,7.9-2.1,11.8-3.2c0.4-0.1,0.6-0.3,0.6-0.7c0-1,0-1.9,0-2.9c0-0.1,0-0.2,0-0.4c-0.2,0-0.3,0.1-0.4,0.1
		c-1.6,0.5-3.3,1-4.9,1.5C16,6,12.9,7,9.9,7.9C9.6,8,9.4,8.1,9.5,8.4c0,0.3,0,0.7,0,1c0,7.7,0,15.4,0,23h14.9c0-0.9,0-1.7,0-2.6
		C24.4,29.8,24.3,29.7,24.3,29.5z"/>
	<path id="XMLID_54_" class="cvst0" d="M40.1,8.5c0-0.3-0.1-0.5-0.5-0.6c-3.9-1.2-7.9-2.4-11.8-3.7C27,4,26.2,3.7,25.3,3.4
		c0,1.2,0,2.4,0,3.6c0,0.1,0.2,0.2,0.3,0.3c1.9,0.5,3.8,1,5.7,1.5c2.2,0.6,4.4,1.2,6.5,1.8c0.2,0,0.4,0.2,0.4,0.3c0,0.3,0,0.7,0,1
		c-4.3-1.1-8.6-2.2-12.9-3.3c0,1.2,0,2.4,0,3.6c0,0.1,0.2,0.2,0.3,0.2c2.6,0.6,5.1,1.1,7.7,1.6c1.5,0.3,3,0.6,4.5,1
		c0.1,0,0.3,0.1,0.4,0.2c0,0.3,0,0.7,0,1.1c-4.3-0.9-8.6-1.7-12.9-2.5c0,1.3,0,2.5,0,3.8c0.1,0,0.2,0.1,0.3,0.1
		c2.3,0.4,4.7,0.7,7,1.1c1.7,0.3,3.5,0.5,5.2,0.8c0.1,0,0.3,0.1,0.3,0.2c0,0.3,0,0.7,0,1.1c-4.3-0.6-8.6-1.2-12.9-1.8
		c0,1.3,0,2.5,0,3.8c0.2,0,0.3,0.1,0.4,0.1c2.3,0.2,4.6,0.4,6.9,0.7c1.8,0.2,3.6,0.3,5.3,0.5c0.1,0,0.3,0.1,0.3,0.2
		c0,0.3,0,0.7,0,1.1c-4.3-0.4-8.6-0.7-12.9-1c0,1.3,0,2.5,0,3.8c4.3,0.2,8.6,0.3,12.9,0.5c0,0.4,0,0.8,0,1.2
		c-4.3-0.1-8.6-0.2-12.9-0.3c0,1,0,2,0,3h14.8c0-1.6,0-3.2,0-4.8C40.1,21.3,40.1,14.9,40.1,8.5z"/>
</g>
</svg>