<svg version="1.1" class="icon-band" id="icon-info" xmlns="http://www.w3.org/2000/svg" xmlns:xlink="http://www.w3.org/1999/xlink" x="0px" y="0px"
	 viewBox="0 0 46.7 30.7" style="enable-background:new 0 0 46.7 40.2;" xml:space="preserve">

	 <g id="XMLID_12_">
	 	<path id="XMLID_13_" class="cvst0" d="M28.4,0.5c-3.4,0-6.2,2.8-6.2,6.2c0,3.3,2.8,6.2,6.2,6.2c3.3,0,6.2-2.8,6.2-6.2
	 		C34.6,3.3,31.8,0.5,28.4,0.5z"/>
	 	<path id="XMLID_67_" class="cvst0" d="M44.4,24c-0.4,0.1-0.8,0.2-1.2,0.2c-0.2,0-0.4,0-0.6-0.1c-0.3-0.1-0.4-0.4-0.4-0.8
	 		c0.1-0.4,0.2-0.8,0.4-1.1c0.3-0.5,0.6-1.1,0.8-1.6c0.3-0.5,0.6-1.1,0.8-1.7c0.3-0.7,0.5-1.5,0.4-2.3c-0.1-1.3-0.6-2.3-1.7-3
	 		c-0.5-0.3-1-0.4-1.5-0.5c-1-0.2-1.9-0.1-2.9,0.2c-0.7,0.2-1.3,0.5-1.9,0.9c-0.2,0.1-0.5,0.3-0.6,0.5c-0.2,0.3-0.1,0.7,0.1,0.9
	 		c0.2,0.2,0.5,0.1,0.7,0.1c0.5-0.1,1-0.3,1.5-0.2c0.5,0.1,0.7,0.4,0.7,0.9c-0.1,0.5-0.3,0.9-0.5,1.3c-0.3,0.7-0.7,1.3-1,2
	 		c-0.4,0.8-0.8,1.7-0.9,2.6c-0.1,1.1,0,2,0.7,2.9c0.3,0.5,0.8,0.8,1.3,1c0.7,0.3,1.4,0.4,2.4,0.4c0.7,0,1.6-0.2,2.4-0.5
	 		c0.6-0.2,1.2-0.6,1.7-1c0.3-0.2,0.4-0.6,0.3-0.8C45.1,24,44.8,23.9,44.4,24z"/>
	 	<path id="XMLID_72_" class="cvst0" d="M43.3,4.8c-1.9,0-3.4,1.6-3.4,3.4c0,1.8,1.5,3.4,3.4,3.4c1.8,0,3.4-1.5,3.4-3.4
	 		C46.7,6.4,45.2,4.8,43.3,4.8z"/>
	 	<path id="XMLID_73_" class="cvst0" d="M11.3,25.3c-0.5,0.1-1.1,0.2-1.6,0.3c-0.3,0-0.6,0-0.8-0.1c-0.4-0.2-0.6-0.6-0.5-1.1
	 		c0.1-0.5,0.3-1,0.5-1.5c0.4-0.7,0.7-1.4,1.1-2.2c0.4-0.7,0.7-1.4,1-2.2c0.4-1,0.6-1.9,0.6-3c-0.1-1.7-0.8-3-2.2-3.9
	 		c-0.6-0.4-1.3-0.6-2-0.7c-1.3-0.2-2.6-0.1-3.8,0.2c-0.9,0.2-1.8,0.6-2.6,1.2c-0.3,0.2-0.6,0.4-0.8,0.7c-0.3,0.3-0.2,1,0.2,1.2
	 		c0.3,0.2,0.6,0.2,0.9,0.1C2,14.1,2.6,14,3.3,14c0.7,0.1,1,0.5,0.9,1.2c-0.1,0.6-0.4,1.2-0.6,1.7c-0.4,0.9-0.9,1.7-1.3,2.6
	 		C1.7,20.6,1.2,21.7,1,23c-0.2,1.4,0,2.7,0.9,3.9c0.5,0.6,1,1.1,1.7,1.4c0.9,0.4,1.9,0.5,3.1,0.6c1,0,2.1-0.2,3.1-0.6
	 		c0.8-0.3,1.6-0.7,2.3-1.3c0.4-0.3,0.5-0.7,0.3-1.1C12.3,25.3,11.9,25.1,11.3,25.3z"/>
	 	<path id="XMLID_74_" class="cvst0" d="M9.9,0C7.4,0,5.4,2.1,5.4,4.5c0,2.4,2,4.5,4.5,4.5c2.4,0,4.5-2,4.5-4.5C14.4,2,12.3,0,9.9,0z"
	 		/>
	 	<path id="XMLID_75_" class="cvst0" d="M27.7,16.5c-0.8-0.5-1.8-0.8-2.8-1c-1.8-0.3-3.5-0.2-5.3,0.3c-1.3,0.3-2.4,0.9-3.5,1.6
	 		c-0.4,0.3-0.8,0.6-1.2,0.9c-0.4,0.5-0.3,1.3,0.3,1.7c0.4,0.3,0.8,0.2,1.3,0.1c0.9-0.2,1.8-0.5,2.8-0.4c0.9,0.1,1.4,0.7,1.2,1.6
	 		c-0.1,0.8-0.5,1.6-0.9,2.3c-0.6,1.2-1.2,2.4-1.8,3.6c-0.6,1.1-1.1,2.2-1.4,3.4h11.2c0.3-0.6,0.6-1.1,0.8-1.7c0.5-1,1-2,1.4-3
	 		c0.5-1.3,0.9-2.7,0.8-4.1C30.7,19.6,29.7,17.8,27.7,16.5z"/>
	 </g>
	 </svg>
