<svg version="1.1" class="icon-band" id="icon-edu" xmlns="http://www.w3.org/2000/svg" xmlns:xlink="http://www.w3.org/1999/xlink" x="0px" y="0px"
	 viewBox="0 0 63.9 33" style="enable-background:new 0 0 63.9 33;" xml:space="preserve">

<g id="XMLID_10_">
	<path id="XMLID_11_" class="cvst0" d="M58.7,22.3c-0.3-0.3-0.3-0.8-0.4-1.3c-0.8-4-1.4-8-2.3-12c-0.3-1.6,0.1-2.3,1.5-3
		c2.2-1.1,4.2-2.4,6.5-3.7c-0.4-0.2-0.6-0.4-0.8-0.4c-1.4-0.1-2.8-0.2-4.2-0.3C50.2,1,41.5,0.5,32.8,0c-0.7,0-1.6,0.1-2.3,0.4
		c-1.6,0.6-3.2,1.3-4.8,2.1c-4.7,2.1-9.4,4.3-14,6.4C7.8,10.6,4,12.2,0,14c0.3,0.3,0.3,0.5,0.4,0.5c4.7,0.6,9.4,1.2,14.1,1.8
		c5.6,0.7,11.1,1.4,16.7,2c2,0.2,3.9,0.8,5.9-0.5c4.5-2.9,9.3-5.5,14-8.2c1.1-0.6,2.2-1.2,3.4-1.8c0.2,0.5,0.4,0.8,0.4,1
		c0.8,4.2,1.6,8.4,2.4,12.6c0.1,0.3,0.1,0.7,0,0.9c-1.5,2.8-0.4,5.5,0.1,8.3c0.3,1.4,1.3,1.4,2.4,1.3c1.1-0.2,2-0.7,1.7-2
		C61,27.2,60.8,24.4,58.7,22.3z"/>
	<path id="XMLID_30_" class="cvst0" d="M49.7,14.3c-4.2,2.4-8.3,4.9-12.5,7.3c-0.6,0.3-1.4,0.6-2,0.5c-3.6-0.4-7.1-0.9-10.7-1.3
		c-2.9-0.4-5.9-0.8-9.1-1.2c0.5,2.9,1,5.4,1.5,8c0.8,4.2,0.9,4.6,4.2,5.4h15.6c2.2-0.4,4.4-1,6.6-1.9c3.4-1.3,6.6-2.9,9.4-5.2
		c0.3-0.3,0.8-0.8,0.7-1.2c-0.6-3.6-1.3-7.3-2.1-11.1C50.7,13.9,50.2,14,49.7,14.3z"/>
</g>
</svg>