<svg class="title-cv-band" id="cv-infos" version="1.1" xmlns="http://www.w3.org/2000/svg" xmlns:xlink="http://www.w3.org/1999/xlink" x="0px" y="0px"
	 viewBox="0 0 134.3 20.9" style="enable-background:new 0 0 134.3 20.9;" xml:space="preserve">

<g id="infos-marker">
	<path id="XMLID_136_" class="cvst0" d="M119.7,0.8V16h5.6v4.9h3.5V16h5.6C134.3,8,127.7,0.8,119.7,0.8z"/>
	<path id="XMLID_137_" class="cvst0" d="M0,16h5.6v4.9h3.5V16h5.6h21.5V0.8H14.7C6.7,0.8,0,8,0,16z"/>
</g>
<g id="infos-title">
	<rect id="XMLID_83_" x="44.8" y="0.4" class="cvst0" width="3.9" height="15"/>
	<polygon id="XMLID_117_" class="cvst0" points="62.9,9.6 55.7,0.4 51.8,0.4 51.8,15.4 55.7,15.4 55.7,6.2 62.9,15.4 66.8,15.4 
		66.8,0.4 62.9,0.4 	"/>
	<polygon id="XMLID_131_" class="cvst0" points="69.9,15.4 73.8,15.4 73.8,9.5 78.1,9.5 78.1,6.2 73.8,6.2 73.8,3.7 78.5,3.7 
		78.5,0.4 69.9,0.4 	"/>
	<path id="XMLID_134_" class="cvst0" d="M94.3,2.3c-0.7-0.7-1.6-1.3-2.6-1.7c-1-0.4-2.1-0.6-3.3-0.6C87.1,0,86,0.2,85,0.6
		c-1,0.4-1.9,1-2.6,1.7s-1.3,1.5-1.7,2.5c-0.4,1-0.6,2-0.6,3.1s0.2,2.1,0.6,3.1c0.4,1,1,1.8,1.7,2.5s1.6,1.3,2.6,1.7
		c1,0.4,2.1,0.6,3.3,0.6c1.2,0,2.3-0.2,3.3-0.6c1-0.4,1.9-1,2.6-1.7S95.6,12,96,11c0.4-1,0.6-2,0.6-3.1S96.4,5.7,96,4.8
		C95.6,3.8,95.1,3,94.3,2.3z M92.3,9.5c-0.2,0.5-0.5,0.9-0.9,1.3c-0.4,0.4-0.8,0.7-1.3,0.9s-1,0.3-1.6,0.3s-1.1-0.1-1.6-0.3
		c-0.5-0.2-1-0.5-1.3-0.9s-0.7-0.8-0.9-1.3c-0.2-0.5-0.3-1.1-0.3-1.6s0.1-1.1,0.3-1.6c0.2-0.5,0.5-0.9,0.9-1.3s0.8-0.7,1.3-0.9
		c0.5-0.2,1-0.3,1.6-0.3s1.1,0.1,1.6,0.3c0.5,0.2,1,0.5,1.3,0.9c0.4,0.4,0.7,0.8,0.9,1.3c0.2,0.5,0.3,1.1,0.3,1.6S92.5,9,92.3,9.5z"
		/>
	<path id="XMLID_135_" class="cvst0" d="M105.8,6.2c-0.3-0.1-0.6-0.2-1-0.3c-0.3-0.1-0.6-0.2-0.9-0.3c-0.3-0.1-0.5-0.3-0.6-0.4
		s-0.2-0.4-0.2-0.7c0-0.4,0.2-0.7,0.5-0.9c0.3-0.2,0.7-0.4,1.2-0.4c0.4,0,0.8,0.1,1.2,0.2c0.4,0.2,0.8,0.4,1.3,0.8l1.5-3
		c-0.7-0.4-1.5-0.7-2.3-0.9C105.7,0.1,105,0,104.2,0c-0.8,0-1.5,0.1-2.2,0.4c-0.6,0.2-1.2,0.6-1.6,1c-0.4,0.4-0.8,0.9-1,1.5
		c-0.2,0.6-0.4,1.3-0.4,2c0,0.7,0.1,1.4,0.3,1.8s0.5,0.9,0.9,1.2c0.4,0.3,0.8,0.6,1.3,0.8c0.5,0.2,1,0.4,1.5,0.5
		c0.4,0.1,0.8,0.3,1.1,0.4s0.5,0.2,0.7,0.4s0.3,0.3,0.4,0.5c0.1,0.2,0.1,0.4,0.1,0.6c0,0.4-0.2,0.7-0.5,1c-0.3,0.3-0.8,0.4-1.4,0.4
		c-0.6,0-1.1-0.1-1.7-0.4s-1.1-0.6-1.7-1.2l-1.7,3.1c1.6,1.1,3.4,1.7,5.3,1.7c0.9,0,1.7-0.1,2.4-0.4c0.7-0.2,1.3-0.6,1.8-1
		c0.5-0.4,0.9-1,1.1-1.6c0.3-0.6,0.4-1.3,0.4-2.1c0-1.1-0.3-2.1-0.9-2.8C108,7.2,107.1,6.7,105.8,6.2z"/>
</g>
</svg>
