<svg class="title-cv-band" id="cv-ref" version="1.1" xmlns="http://www.w3.org/2000/svg" xmlns:xlink="http://www.w3.org/1999/xlink" x="0px" y="0px"
	 viewBox="0 0 200.3 20.9" style="enable-background:new 0 0 200.3 20.9;" xml:space="preserve">

<g id="ref-marker">
	<path id="XMLID_216_" class="cvst0" d="M185.7,0.8V16h5.6v4.9h3.5V16h5.6C200.3,8,193.7,0.8,185.7,0.8z"/>
	<path id="XMLID_217_" class="cvst0" d="M0,16h5.6v4.9h3.5V16h5.6h21.5V0.8H14.7C6.7,0.8,0,8,0,16z"/>
</g>
<g id="ref-title">
	<path id="XMLID_157_" class="cvst0" d="M58.4,7.8c0.5-0.7,0.8-1.6,0.8-2.8c0-0.6-0.1-1.2-0.3-1.8c-0.2-0.6-0.5-1-0.9-1.5
		s-0.9-0.8-1.5-1c-0.6-0.2-1.3-0.4-2.2-0.4h-6v15h3.9V9.6l3.7,5.8h4.8L56,9.2C57,9,57.8,8.5,58.4,7.8z M54.6,6.6
		c-0.4,0.3-1,0.5-1.8,0.5h-0.7V3.4h0.7c0.8,0,1.4,0.2,1.8,0.5s0.6,0.8,0.6,1.4C55.2,5.9,55,6.3,54.6,6.6z"/>
	<polygon id="XMLID_205_" class="cvst0" points="62.3,15.4 70.8,15.4 70.8,12.1 66.2,12.1 66.2,9.5 70.5,9.5 70.5,6.2 66.2,6.2 
		66.2,3.7 70.8,3.7 70.8,0.4 62.3,0.4 	"/>
	<polygon id="XMLID_206_" class="cvst0" points="73.6,15.4 77.5,15.4 77.5,9.5 81.7,9.5 81.7,6.2 77.5,6.2 77.5,3.7 82.2,3.7 
		82.2,0.4 73.6,0.4 	"/>
	<polygon id="XMLID_207_" class="cvst0" points="84.5,15.4 93,15.4 93,12.1 88.4,12.1 88.4,9.5 92.7,9.5 92.7,6.2 88.4,6.2 88.4,3.7 
		93,3.7 93,0.4 84.5,0.4 	"/>
	<path id="XMLID_210_" class="cvst0" d="M105.9,7.8c0.5-0.7,0.8-1.6,0.8-2.8c0-0.6-0.1-1.2-0.3-1.8c-0.2-0.6-0.5-1-0.9-1.5
		s-0.9-0.8-1.5-1c-0.6-0.2-1.3-0.4-2.2-0.4h-6v15h3.9V9.6l3.7,5.8h4.8l-4.7-6.1C104.6,9,105.4,8.5,105.9,7.8z M102.2,6.6
		c-0.4,0.3-1,0.5-1.8,0.5h-0.7V3.4h0.7c0.8,0,1.4,0.2,1.8,0.5s0.6,0.8,0.6,1.4C102.8,5.9,102.6,6.3,102.2,6.6z"/>
	<polygon id="XMLID_211_" class="cvst0" points="109.8,15.4 118.4,15.4 118.4,12.1 113.7,12.1 113.7,9.5 118.1,9.5 118.1,6.2 
		113.7,6.2 113.7,3.7 118.4,3.7 118.4,0.4 109.8,0.4 	"/>
	<polygon id="XMLID_212_" class="cvst0" points="132.2,9.6 125,0.4 121.1,0.4 121.1,15.4 125,15.4 125,6.2 132.2,15.4 136.1,15.4 
		136.1,0.4 132.2,0.4 	"/>
	<path id="XMLID_213_" class="cvst0" d="M146.6,0c-1,0-2,0.2-3,0.6c-1,0.4-1.8,0.9-2.5,1.6c-0.7,0.7-1.3,1.5-1.7,2.5
		c-0.4,1-0.6,2-0.6,3.2c0,1.2,0.2,2.2,0.7,3.2c0.4,1,1,1.8,1.7,2.5c0.7,0.7,1.6,1.3,2.5,1.6c0.9,0.4,1.9,0.6,3,0.6
		c0.5,0,1,0,1.5-0.1c0.5-0.1,1.1-0.3,1.7-0.5l0.4-0.1v-4.6c-1,1.1-2.1,1.6-3.4,1.6c-0.6,0-1.1-0.1-1.6-0.3c-0.5-0.2-0.9-0.5-1.3-0.9
		c-0.4-0.4-0.6-0.8-0.9-1.3c-0.2-0.5-0.3-1.1-0.3-1.6c0-0.6,0.1-1.1,0.3-1.6c0.2-0.5,0.5-0.9,0.8-1.3s0.8-0.7,1.3-0.9
		c0.5-0.2,1-0.3,1.6-0.3c1.3,0,2.4,0.5,3.3,1.6V0.8c-0.6-0.3-1.2-0.5-1.8-0.6C147.8,0.1,147.2,0,146.6,0z"/>
	<polygon id="XMLID_214_" class="cvst0" points="152.6,15.4 161.1,15.4 161.1,12.1 156.5,12.1 156.5,9.5 160.9,9.5 160.9,6.2 
		156.5,6.2 156.5,3.7 161.1,3.7 161.1,0.4 152.6,0.4 	"/>
	<path id="XMLID_215_" class="cvst0" d="M170.6,6.2c-0.3-0.1-0.6-0.2-1-0.3c-0.3-0.1-0.6-0.2-0.9-0.3c-0.3-0.1-0.5-0.3-0.6-0.4
		s-0.2-0.4-0.2-0.7c0-0.4,0.2-0.7,0.5-0.9c0.3-0.2,0.7-0.4,1.2-0.4c0.4,0,0.8,0.1,1.2,0.2c0.4,0.2,0.8,0.4,1.3,0.8l1.5-3
		c-0.7-0.4-1.5-0.7-2.3-0.9c-0.8-0.2-1.6-0.3-2.3-0.3c-0.8,0-1.5,0.1-2.2,0.4c-0.6,0.2-1.2,0.6-1.6,1c-0.4,0.4-0.8,0.9-1,1.5
		c-0.2,0.6-0.4,1.3-0.4,2c0,0.7,0.1,1.4,0.3,1.8s0.5,0.9,0.9,1.2c0.4,0.3,0.8,0.6,1.3,0.8c0.5,0.2,1,0.4,1.5,0.5
		c0.4,0.1,0.8,0.3,1.1,0.4s0.5,0.2,0.7,0.4s0.3,0.3,0.4,0.5c0.1,0.2,0.1,0.4,0.1,0.6c0,0.4-0.2,0.7-0.5,1c-0.3,0.3-0.8,0.4-1.4,0.4
		c-0.6,0-1.1-0.1-1.7-0.4s-1.1-0.6-1.7-1.2l-1.7,3.1c1.6,1.1,3.4,1.7,5.3,1.7c0.9,0,1.7-0.1,2.4-0.4c0.7-0.2,1.3-0.6,1.8-1
		c0.5-0.4,0.9-1,1.1-1.6c0.3-0.6,0.4-1.3,0.4-2.1c0-1.1-0.3-2.1-0.9-2.8C172.8,7.2,171.9,6.7,170.6,6.2z"/>
</g>
</svg>
