<svg class="title-cv-band" id="cv-skills" version="1.1" xmlns="http://www.w3.org/2000/svg" xmlns:xlink="http://www.w3.org/1999/xlink" x="0px" y="0px"
	 viewBox="0 0 134.3 20.9" style="enable-background:new 0 0 134.3 20.9;" xml:space="preserve">

<g id="skills-marker">
	<path id="XMLID_130_" class="cvst0" d="M119.7,0.8V16h5.6v4.9h3.5V16h5.6C134.3,8,127.7,0.8,119.7,0.8z"/>
	<path id="XMLID_138_" class="cvst0" d="M0,16h5.6v4.9h3.5V16h5.6h21.5V0.8H14.7C6.7,0.8,0,8,0,16z"/>
</g>
<g id="skills-title">
	<path id="XMLID_70_" class="cvst0" d="M51.5,6.2c-0.3-0.1-0.6-0.2-1-0.3c-0.3-0.1-0.6-0.2-0.9-0.3c-0.3-0.1-0.5-0.3-0.6-0.4
		s-0.2-0.4-0.2-0.7c0-0.4,0.2-0.7,0.5-0.9c0.3-0.2,0.7-0.4,1.2-0.4c0.4,0,0.8,0.1,1.2,0.2c0.4,0.2,0.8,0.4,1.3,0.8l1.5-3
		c-0.7-0.4-1.5-0.7-2.3-0.9C51.4,0.1,50.7,0,49.9,0c-0.8,0-1.5,0.1-2.2,0.4c-0.6,0.2-1.2,0.6-1.6,1c-0.4,0.4-0.8,0.9-1,1.5
		c-0.2,0.6-0.4,1.3-0.4,2c0,0.7,0.1,1.4,0.3,1.8S45.6,7.6,46,8c0.4,0.3,0.8,0.6,1.3,0.8c0.5,0.2,1,0.4,1.5,0.5
		c0.4,0.1,0.8,0.3,1.1,0.4s0.5,0.2,0.7,0.4s0.3,0.3,0.4,0.5c0.1,0.2,0.1,0.4,0.1,0.6c0,0.4-0.2,0.7-0.5,1c-0.3,0.3-0.8,0.4-1.4,0.4
		c-0.6,0-1.1-0.1-1.7-0.4s-1.1-0.6-1.7-1.2l-1.7,3.1c1.6,1.1,3.4,1.7,5.3,1.7c0.9,0,1.7-0.1,2.4-0.4c0.7-0.2,1.3-0.6,1.8-1
		c0.5-0.4,0.9-1,1.1-1.6c0.3-0.6,0.4-1.3,0.4-2.1c0-1.1-0.3-2.1-0.9-2.8C53.7,7.2,52.8,6.7,51.5,6.2z"/>
	<polygon id="XMLID_71_" class="cvst0" points="71.1,0.4 66.3,0.4 61.5,6.6 61.5,0.4 57.6,0.4 57.6,15.4 61.5,15.4 61.5,8.9 
		66.6,15.4 71.6,15.4 65.1,7.5 	"/>
	<rect id="XMLID_125_" x="73.3" y="0.4" class="cvst0" width="3.9" height="15"/>
	<polygon id="XMLID_126_" class="cvst0" points="84.2,0.4 80.4,0.4 80.4,15.4 88.9,15.4 88.9,12.1 84.2,12.1 	"/>
	<polygon id="XMLID_127_" class="cvst0" points="94.8,0.4 90.9,0.4 90.9,15.4 99.5,15.4 99.5,12.1 94.8,12.1 	"/>
	<path id="XMLID_128_" class="cvst0" d="M108.4,6.2c-0.3-0.1-0.6-0.2-1-0.3c-0.3-0.1-0.6-0.2-0.9-0.3c-0.3-0.1-0.5-0.3-0.6-0.4
		s-0.2-0.4-0.2-0.7c0-0.4,0.2-0.7,0.5-0.9c0.3-0.2,0.7-0.4,1.2-0.4c0.4,0,0.8,0.1,1.2,0.2c0.4,0.2,0.8,0.4,1.3,0.8l1.5-3
		c-0.7-0.4-1.5-0.7-2.3-0.9c-0.8-0.2-1.6-0.3-2.3-0.3c-0.8,0-1.5,0.1-2.2,0.4c-0.6,0.2-1.2,0.6-1.6,1c-0.4,0.4-0.8,0.9-1,1.5
		c-0.2,0.6-0.4,1.3-0.4,2c0,0.7,0.1,1.4,0.3,1.8s0.5,0.9,0.9,1.2c0.4,0.3,0.8,0.6,1.3,0.8c0.5,0.2,1,0.4,1.5,0.5
		c0.4,0.1,0.8,0.3,1.1,0.4s0.5,0.2,0.7,0.4s0.3,0.3,0.4,0.5c0.1,0.2,0.1,0.4,0.1,0.6c0,0.4-0.2,0.7-0.5,1c-0.3,0.3-0.8,0.4-1.4,0.4
		c-0.6,0-1.1-0.1-1.7-0.4s-1.1-0.6-1.7-1.2l-1.7,3.1c1.6,1.1,3.4,1.7,5.3,1.7c0.9,0,1.7-0.1,2.4-0.4c0.7-0.2,1.3-0.6,1.8-1
		c0.5-0.4,0.9-1,1.1-1.6c0.3-0.6,0.4-1.3,0.4-2.1c0-1.1-0.3-2.1-0.9-2.8C110.6,7.2,109.7,6.7,108.4,6.2z"/>
</g>
</svg>
